<mxfile host="app.diagrams.net" agent="Mozilla/5.0 (Windows NT 10.0; Win64; x64) AppleWebKit/537.36 (KHTML, like Gecko) Chrome/131.0.0.0 Safari/537.36" version="24.8.6">
  <diagram name="Home" id="J4DH80fsztfZuKkyWIqf">
    <mxGraphModel dx="2059" dy="2285" grid="1" gridSize="10" guides="1" tooltips="1" connect="1" arrows="1" fold="1" page="1" pageScale="1" pageWidth="827" pageHeight="1169" math="0" shadow="0">
      <root>
        <mxCell id="0" />
        <mxCell id="1" parent="0" />
        <mxCell id="D0NrdFC35zG7wWqJNvRS-69" value="" style="rounded=0;whiteSpace=wrap;html=1;" parent="1" vertex="1">
          <mxGeometry x="10" y="70" width="290" height="344" as="geometry" />
        </mxCell>
        <mxCell id="D0NrdFC35zG7wWqJNvRS-1" value="Principal" style="whiteSpace=wrap;html=1;aspect=fixed;fillColor=#e1d5e7;strokeColor=#9673a6;" parent="1" vertex="1">
          <mxGeometry x="798" y="150" width="80" height="80" as="geometry" />
        </mxCell>
        <mxCell id="D0NrdFC35zG7wWqJNvRS-2" value="Figuras" style="whiteSpace=wrap;html=1;aspect=fixed;fillColor=#fff2cc;strokeColor=#d6b656;" parent="1" vertex="1">
          <mxGeometry x="390" y="260" width="80" height="80" as="geometry" />
        </mxCell>
        <mxCell id="D0NrdFC35zG7wWqJNvRS-3" value="Cajas" style="whiteSpace=wrap;html=1;aspect=fixed;fillColor=#fff2cc;strokeColor=#d6b656;" parent="1" vertex="1">
          <mxGeometry x="580" y="300" width="80" height="80" as="geometry" />
        </mxCell>
        <mxCell id="D0NrdFC35zG7wWqJNvRS-4" value="Cartas" style="whiteSpace=wrap;html=1;aspect=fixed;fillColor=#fff2cc;strokeColor=#d6b656;" parent="1" vertex="1">
          <mxGeometry x="780" y="310" width="80" height="80" as="geometry" />
        </mxCell>
        <mxCell id="D0NrdFC35zG7wWqJNvRS-5" value="" style="endArrow=classic;startArrow=classic;html=1;rounded=0;entryX=0;entryY=1;entryDx=0;entryDy=0;exitX=1;exitY=0.5;exitDx=0;exitDy=0;" parent="1" source="D0NrdFC35zG7wWqJNvRS-2" target="D0NrdFC35zG7wWqJNvRS-1" edge="1">
          <mxGeometry width="50" height="50" relative="1" as="geometry">
            <mxPoint x="881" y="802.8" as="sourcePoint" />
            <mxPoint x="931" y="752.8" as="targetPoint" />
          </mxGeometry>
        </mxCell>
        <mxCell id="D0NrdFC35zG7wWqJNvRS-6" value="" style="endArrow=classic;startArrow=classic;html=1;rounded=0;exitX=0.5;exitY=0;exitDx=0;exitDy=0;entryX=0.5;entryY=1;entryDx=0;entryDy=0;" parent="1" source="D0NrdFC35zG7wWqJNvRS-3" target="D0NrdFC35zG7wWqJNvRS-1" edge="1">
          <mxGeometry width="50" height="50" relative="1" as="geometry">
            <mxPoint x="421" y="780" as="sourcePoint" />
            <mxPoint x="431" y="710" as="targetPoint" />
          </mxGeometry>
        </mxCell>
        <mxCell id="D0NrdFC35zG7wWqJNvRS-7" value="" style="endArrow=classic;startArrow=classic;html=1;rounded=0;entryX=0.645;entryY=1.026;entryDx=0;entryDy=0;exitX=0.5;exitY=0;exitDx=0;exitDy=0;entryPerimeter=0;" parent="1" source="D0NrdFC35zG7wWqJNvRS-4" target="D0NrdFC35zG7wWqJNvRS-1" edge="1">
          <mxGeometry width="50" height="50" relative="1" as="geometry">
            <mxPoint x="440" y="810" as="sourcePoint" />
            <mxPoint x="431" y="210" as="targetPoint" />
          </mxGeometry>
        </mxCell>
        <mxCell id="D0NrdFC35zG7wWqJNvRS-8" value="iniciar sesion" style="whiteSpace=wrap;html=1;aspect=fixed;fillColor=#fff2cc;strokeColor=#d6b656;" parent="1" vertex="1">
          <mxGeometry x="580" width="80" height="80" as="geometry" />
        </mxCell>
        <mxCell id="D0NrdFC35zG7wWqJNvRS-9" value="carrito" style="whiteSpace=wrap;html=1;aspect=fixed;fillColor=#fff2cc;strokeColor=#d6b656;" parent="1" vertex="1">
          <mxGeometry x="860" y="10" width="60" height="60" as="geometry" />
        </mxCell>
        <mxCell id="D0NrdFC35zG7wWqJNvRS-10" value="" style="endArrow=classic;startArrow=classic;html=1;rounded=0;entryX=0.5;entryY=1;entryDx=0;entryDy=0;exitX=0.25;exitY=0;exitDx=0;exitDy=0;" parent="1" source="D0NrdFC35zG7wWqJNvRS-1" target="nlUkrXb4if6VLOonvvVJ-4" edge="1">
          <mxGeometry width="50" height="50" relative="1" as="geometry">
            <mxPoint x="881" y="802.8" as="sourcePoint" />
            <mxPoint x="931" y="752.8" as="targetPoint" />
          </mxGeometry>
        </mxCell>
        <mxCell id="D0NrdFC35zG7wWqJNvRS-11" value="" style="endArrow=classic;startArrow=classic;html=1;rounded=0;entryX=0;entryY=1;entryDx=0;entryDy=0;exitX=0.75;exitY=0;exitDx=0;exitDy=0;" parent="1" source="D0NrdFC35zG7wWqJNvRS-1" edge="1">
          <mxGeometry width="50" height="50" relative="1" as="geometry">
            <mxPoint x="840" y="150" as="sourcePoint" />
            <mxPoint x="869" y="71" as="targetPoint" />
          </mxGeometry>
        </mxCell>
        <mxCell id="D0NrdFC35zG7wWqJNvRS-12" value="listado de cajas" style="whiteSpace=wrap;html=1;aspect=fixed;fillColor=#d5e8d4;strokeColor=#82b366;" parent="1" vertex="1">
          <mxGeometry x="510" y="610" width="80" height="80" as="geometry" />
        </mxCell>
        <mxCell id="D0NrdFC35zG7wWqJNvRS-34" value="Listado de figuras" style="whiteSpace=wrap;html=1;aspect=fixed;fillColor=#d5e8d4;strokeColor=#82b366;" parent="1" vertex="1">
          <mxGeometry x="260" y="540" width="80" height="80" as="geometry" />
        </mxCell>
        <mxCell id="D0NrdFC35zG7wWqJNvRS-36" value="" style="endArrow=classic;startArrow=classic;html=1;rounded=0;entryX=0.5;entryY=0;entryDx=0;entryDy=0;exitX=0.5;exitY=1;exitDx=0;exitDy=0;" parent="1" source="D0NrdFC35zG7wWqJNvRS-2" target="D0NrdFC35zG7wWqJNvRS-34" edge="1">
          <mxGeometry width="50" height="50" relative="1" as="geometry">
            <mxPoint x="327" y="540" as="sourcePoint" />
            <mxPoint x="377" y="490" as="targetPoint" />
          </mxGeometry>
        </mxCell>
        <mxCell id="D0NrdFC35zG7wWqJNvRS-46" value="listado de cartas" style="whiteSpace=wrap;html=1;aspect=fixed;fillColor=#d5e8d4;strokeColor=#82b366;" parent="1" vertex="1">
          <mxGeometry x="770" y="620" width="80" height="80" as="geometry" />
        </mxCell>
        <mxCell id="D0NrdFC35zG7wWqJNvRS-149" value="" style="group" parent="1" vertex="1" connectable="0">
          <mxGeometry x="891" y="-460" width="630" height="372.8" as="geometry" />
        </mxCell>
        <mxCell id="D0NrdFC35zG7wWqJNvRS-148" value="&lt;font style=&quot;font-size: 24px;&quot;&gt;SECCIONES&lt;/font&gt;" style="text;strokeColor=none;align=center;fillColor=none;html=1;verticalAlign=middle;whiteSpace=wrap;rounded=0;strokeWidth=3;" parent="D0NrdFC35zG7wWqJNvRS-149" vertex="1">
          <mxGeometry x="384" y="-130" width="170" height="60" as="geometry" />
        </mxCell>
        <mxCell id="D0NrdFC35zG7wWqJNvRS-68" value="&lt;font style=&quot;font-size: 29px;&quot;&gt;GUIA&lt;/font&gt;" style="text;strokeColor=none;align=center;fillColor=none;html=1;verticalAlign=middle;whiteSpace=wrap;rounded=0;" parent="D0NrdFC35zG7wWqJNvRS-149" vertex="1">
          <mxGeometry x="-775" y="544" width="60" height="30" as="geometry" />
        </mxCell>
        <mxCell id="D0NrdFC35zG7wWqJNvRS-70" value="" style="group" parent="D0NrdFC35zG7wWqJNvRS-149" vertex="1" connectable="0">
          <mxGeometry x="-846" y="594" width="220" height="137.2" as="geometry" />
        </mxCell>
        <mxCell id="D0NrdFC35zG7wWqJNvRS-55" value="Todas las paginas y subpaginas con estos colores pueden direccionarte a home y viceversa, ademÃ¡s de redireccionarse entre si gracias a la barra de navegacion con el desplegable en el caso de confirmar solo puede volver a la principal." style="text;strokeColor=none;align=center;fillColor=none;html=1;verticalAlign=middle;whiteSpace=wrap;rounded=0;" parent="D0NrdFC35zG7wWqJNvRS-70" vertex="1">
          <mxGeometry y="20" width="220.00000000000003" height="37.2" as="geometry" />
        </mxCell>
        <mxCell id="D0NrdFC35zG7wWqJNvRS-53" value="" style="whiteSpace=wrap;html=1;fillColor=#fff2cc;strokeColor=#d6b656;" parent="D0NrdFC35zG7wWqJNvRS-70" vertex="1">
          <mxGeometry x="44" y="100" width="132" height="37.2" as="geometry" />
        </mxCell>
        <mxCell id="D0NrdFC35zG7wWqJNvRS-71" value="" style="group" parent="D0NrdFC35zG7wWqJNvRS-149" vertex="1" connectable="0">
          <mxGeometry x="-840" y="774" width="200" height="90" as="geometry" />
        </mxCell>
        <mxCell id="D0NrdFC35zG7wWqJNvRS-61" value="" style="whiteSpace=wrap;html=1;fillColor=#dae8fc;strokeColor=#6c8ebf;" parent="D0NrdFC35zG7wWqJNvRS-71" vertex="1">
          <mxGeometry x="40" y="30" width="120" height="60" as="geometry" />
        </mxCell>
        <mxCell id="D0NrdFC35zG7wWqJNvRS-62" value="secciones de una pagina" style="text;strokeColor=none;align=center;fillColor=none;html=1;verticalAlign=middle;whiteSpace=wrap;rounded=0;" parent="D0NrdFC35zG7wWqJNvRS-71" vertex="1">
          <mxGeometry width="200" height="30" as="geometry" />
        </mxCell>
        <mxCell id="D0NrdFC35zG7wWqJNvRS-54" value="" style="whiteSpace=wrap;html=1;fillColor=#d5e8d4;strokeColor=#82b366;" parent="D0NrdFC35zG7wWqJNvRS-149" vertex="1">
          <mxGeometry x="-802" y="736.8" width="132" height="37.2" as="geometry" />
        </mxCell>
        <mxCell id="D0NrdFC35zG7wWqJNvRS-152" value="" style="endArrow=classic;startArrow=classic;html=1;rounded=0;entryX=0;entryY=1;entryDx=0;entryDy=0;exitX=0.5;exitY=0;exitDx=0;exitDy=0;" parent="1" source="D0NrdFC35zG7wWqJNvRS-12" target="D0NrdFC35zG7wWqJNvRS-3" edge="1">
          <mxGeometry width="50" height="50" relative="1" as="geometry">
            <mxPoint x="860" y="440" as="sourcePoint" />
            <mxPoint x="910" y="390" as="targetPoint" />
          </mxGeometry>
        </mxCell>
        <mxCell id="D0NrdFC35zG7wWqJNvRS-157" value="" style="endArrow=classic;startArrow=classic;html=1;rounded=0;entryX=0;entryY=1;entryDx=0;entryDy=0;exitX=0.5;exitY=0;exitDx=0;exitDy=0;" parent="1" source="D0NrdFC35zG7wWqJNvRS-46" target="D0NrdFC35zG7wWqJNvRS-4" edge="1">
          <mxGeometry width="50" height="50" relative="1" as="geometry">
            <mxPoint x="810.5" y="455" as="sourcePoint" />
            <mxPoint x="766.5" y="370" as="targetPoint" />
          </mxGeometry>
        </mxCell>
        <mxCell id="YoOqpf-NT1kCjD4I0Tgy-8" value="Comunidad" style="whiteSpace=wrap;html=1;aspect=fixed;fillColor=#dae8fc;strokeColor=#6c8ebf;" parent="1" vertex="1">
          <mxGeometry x="1198" y="150" width="80" height="80" as="geometry" />
        </mxCell>
        <mxCell id="YoOqpf-NT1kCjD4I0Tgy-9" value="Mejores productos" style="whiteSpace=wrap;html=1;aspect=fixed;fillColor=#dae8fc;strokeColor=#6c8ebf;" parent="1" vertex="1">
          <mxGeometry x="878" y="150" width="80" height="80" as="geometry" />
        </mxCell>
        <mxCell id="YoOqpf-NT1kCjD4I0Tgy-10" value="Novedades" style="whiteSpace=wrap;html=1;aspect=fixed;fillColor=#dae8fc;strokeColor=#6c8ebf;" parent="1" vertex="1">
          <mxGeometry x="958" y="150" width="80" height="80" as="geometry" />
        </mxCell>
        <mxCell id="YoOqpf-NT1kCjD4I0Tgy-19" value="Tips" style="whiteSpace=wrap;html=1;aspect=fixed;fillColor=#dae8fc;strokeColor=#6c8ebf;" parent="1" vertex="1">
          <mxGeometry x="1038" y="150.00000000000006" width="80" height="80" as="geometry" />
        </mxCell>
        <mxCell id="nlUkrXb4if6VLOonvvVJ-1" value="FAQs" style="whiteSpace=wrap;html=1;aspect=fixed;fillColor=#dae8fc;strokeColor=#6c8ebf;" vertex="1" parent="1">
          <mxGeometry x="1118" y="150" width="80" height="80" as="geometry" />
        </mxCell>
        <mxCell id="nlUkrXb4if6VLOonvvVJ-2" value="footer" style="whiteSpace=wrap;html=1;aspect=fixed;fillColor=#dae8fc;strokeColor=#6c8ebf;" vertex="1" parent="1">
          <mxGeometry x="1355" y="150" width="80" height="80" as="geometry" />
        </mxCell>
        <mxCell id="nlUkrXb4if6VLOonvvVJ-3" value="Ropa" style="whiteSpace=wrap;html=1;aspect=fixed;fillColor=#fff2cc;strokeColor=#d6b656;" vertex="1" parent="1">
          <mxGeometry x="1000" y="310" width="80" height="80" as="geometry" />
        </mxCell>
        <mxCell id="nlUkrXb4if6VLOonvvVJ-4" value="Registro" style="whiteSpace=wrap;html=1;aspect=fixed;fillColor=#fff2cc;strokeColor=#d6b656;" vertex="1" parent="1">
          <mxGeometry x="710" y="-10" width="80" height="80" as="geometry" />
        </mxCell>
        <mxCell id="D0NrdFC35zG7wWqJNvRS-145" value="carrito" style="whiteSpace=wrap;html=1;aspect=fixed;fillColor=#fff2cc;strokeColor=#d6b656;" parent="1" vertex="1">
          <mxGeometry x="1106" y="-100" width="60" height="60" as="geometry" />
        </mxCell>
        <mxCell id="D0NrdFC35zG7wWqJNvRS-146" value="listado de productos en el carrito" style="whiteSpace=wrap;html=1;fillColor=#dae8fc;strokeColor=#6c8ebf;" parent="1" vertex="1">
          <mxGeometry x="1078" y="-40" width="120" height="60" as="geometry" />
        </mxCell>
        <mxCell id="D0NrdFC35zG7wWqJNvRS-147" value="boton para ir a pagina confirmar" style="whiteSpace=wrap;html=1;fillColor=#dae8fc;strokeColor=#6c8ebf;" parent="1" vertex="1">
          <mxGeometry x="1077" y="20" width="120" height="60" as="geometry" />
        </mxCell>
        <mxCell id="nlUkrXb4if6VLOonvvVJ-5" value="categorias" style="whiteSpace=wrap;html=1;aspect=fixed;fillColor=#dae8fc;strokeColor=#6c8ebf;" vertex="1" parent="1">
          <mxGeometry x="1278" y="150" width="80" height="80" as="geometry" />
        </mxCell>
        <mxCell id="nlUkrXb4if6VLOonvvVJ-6" value="Confirmar" style="whiteSpace=wrap;html=1;aspect=fixed;fillColor=#fff2cc;strokeColor=#d6b656;" vertex="1" parent="1">
          <mxGeometry x="978" y="10" width="60" height="60" as="geometry" />
        </mxCell>
        <mxCell id="nlUkrXb4if6VLOonvvVJ-7" value="" style="endArrow=classic;startArrow=classic;html=1;rounded=0;entryX=1;entryY=1;entryDx=0;entryDy=0;exitX=0.129;exitY=0.064;exitDx=0;exitDy=0;exitPerimeter=0;" edge="1" parent="1" source="nlUkrXb4if6VLOonvvVJ-3" target="D0NrdFC35zG7wWqJNvRS-1">
          <mxGeometry width="50" height="50" relative="1" as="geometry">
            <mxPoint x="740" y="170" as="sourcePoint" />
            <mxPoint x="790" y="120" as="targetPoint" />
          </mxGeometry>
        </mxCell>
        <mxCell id="nlUkrXb4if6VLOonvvVJ-8" value="listado de prednas" style="whiteSpace=wrap;html=1;aspect=fixed;fillColor=#d5e8d4;strokeColor=#82b366;" vertex="1" parent="1">
          <mxGeometry x="990" y="620" width="80" height="80" as="geometry" />
        </mxCell>
        <mxCell id="nlUkrXb4if6VLOonvvVJ-9" value="" style="endArrow=classic;startArrow=classic;html=1;rounded=0;entryX=0.5;entryY=1;entryDx=0;entryDy=0;exitX=0.5;exitY=0;exitDx=0;exitDy=0;" edge="1" parent="1" source="nlUkrXb4if6VLOonvvVJ-8" target="nlUkrXb4if6VLOonvvVJ-3">
          <mxGeometry width="50" height="50" relative="1" as="geometry">
            <mxPoint x="1180" y="640" as="sourcePoint" />
            <mxPoint x="1118" y="400" as="targetPoint" />
          </mxGeometry>
        </mxCell>
        <mxCell id="nlUkrXb4if6VLOonvvVJ-10" value="" style="endArrow=classic;startArrow=classic;html=1;rounded=0;entryX=1;entryY=0.5;entryDx=0;entryDy=0;exitX=0;exitY=0.5;exitDx=0;exitDy=0;" edge="1" parent="1" source="nlUkrXb4if6VLOonvvVJ-6" target="D0NrdFC35zG7wWqJNvRS-9">
          <mxGeometry width="50" height="50" relative="1" as="geometry">
            <mxPoint x="888" y="160" as="sourcePoint" />
            <mxPoint x="870" y="80" as="targetPoint" />
          </mxGeometry>
        </mxCell>
        <mxCell id="nlUkrXb4if6VLOonvvVJ-11" value="" style="endArrow=classic;startArrow=classic;html=1;rounded=0;entryX=0.75;entryY=1;entryDx=0;entryDy=0;exitX=0;exitY=0;exitDx=0;exitDy=0;" edge="1" parent="1" source="D0NrdFC35zG7wWqJNvRS-1" target="D0NrdFC35zG7wWqJNvRS-8">
          <mxGeometry width="50" height="50" relative="1" as="geometry">
            <mxPoint x="868" y="160" as="sourcePoint" />
            <mxPoint x="630" y="90" as="targetPoint" />
          </mxGeometry>
        </mxCell>
        <mxCell id="nlUkrXb4if6VLOonvvVJ-14" value="" style="endArrow=classic;html=1;rounded=0;entryX=1;entryY=0;entryDx=0;entryDy=0;exitX=0;exitY=1;exitDx=0;exitDy=0;" edge="1" parent="1" source="nlUkrXb4if6VLOonvvVJ-6" target="D0NrdFC35zG7wWqJNvRS-1">
          <mxGeometry width="50" height="50" relative="1" as="geometry">
            <mxPoint x="620" y="320" as="sourcePoint" />
            <mxPoint x="670" y="270" as="targetPoint" />
          </mxGeometry>
        </mxCell>
      </root>
    </mxGraphModel>
  </diagram>
</mxfile>
